<?xml version="1.0" encoding="UTF-8"?>
<svg xmlns="http://www.w3.org/2000/svg" xmlns:xlink="http://www.w3.org/1999/xlink" viewBox="0 0 512 512" width="512px" height="512px">
<g id="surface51983538">
<path style=" stroke:none;fill-rule:nonzero;fill:rgb(21.960784%,70.588237%,48.235294%);fill-opacity:1;" d="M 12.238281 291.585938 C 19.570312 233.503906 21.4375 181.308594 16.40625 118.699219 C 14.445312 94.351562 16.542969 66.96875 32.710938 48.71875 C 43.578125 36.4375 60.152344 31.152344 76.109375 27.535156 C 175.777344 4.9375 279.648438 26.992188 381.757812 23.253906 C 405.507812 22.382812 431.203125 20.601562 451.003906 33.8125 C 471.539062 47.503906 479.792969 73.472656 484.464844 97.785156 C 495.507812 155.242188 494.488281 214.257812 493.433594 272.769531 C 492.585938 319.628906 491.726562 366.472656 490.882812 413.332031 C 490.441406 437.78125 488.6875 465.234375 470.46875 481.449219 C 454.339844 495.8125 419.160156 501.53125 397.605469 501.34375 C 289.535156 500.414062 192.960938 494.328125 84.890625 493.382812 C 76.074219 493.3125 67.03125 493.199219 58.753906 490.144531 C 41.308594 483.730469 30.820312 465.808594 24.652344 448.207031 C 10.285156 407.285156 11.625 362.707031 13.144531 319.34375 C 13.367188 312.523438 11.378906 298.34375 12.238281 291.585938 Z M 12.238281 291.585938 "/>
<path style=" stroke:none;fill-rule:nonzero;fill:rgb(77.254903%,39.607844%,15.686275%);fill-opacity:1;" d="M 221.066406 341.84375 C 219.457031 350.5625 218.097656 360.449219 223.433594 367.539062 C 225.332031 370.066406 227.996094 372.054688 229.367188 374.914062 C 230.300781 376.851562 230.597656 379.097656 231.871094 380.824219 C 233.441406 382.960938 236.164062 383.867188 238.703125 384.628906 C 247.644531 387.300781 257.238281 389.792969 266.195312 387.144531 C 273.613281 384.945312 279.699219 379.378906 283.929688 372.890625 C 288.164062 366.398438 290.738281 359.003906 293.09375 351.632812 C 294.726562 346.503906 295.4375 337.523438 300.320312 335.265625 Z M 221.066406 341.84375 "/>
<path style=" stroke:none;fill-rule:nonzero;fill:rgb(79.607844%,85.882354%,17.647059%);fill-opacity:1;" d="M 21.203125 173.605469 C 33.027344 170.144531 45.921875 157.070312 48.679688 145.058594 C 51.441406 133.050781 52.789062 119.9375 60.8125 110.578125 C 61.792969 109.4375 62.921875 108.332031 64.371094 107.929688 C 67.070312 107.179688 69.71875 109.070312 71.890625 110.847656 C 77.605469 115.546875 83.308594 120.246094 89.027344 124.929688 C 94.3125 111.65625 91.761719 94.03125 103.195312 85.457031 C 108.945312 81.152344 116.921875 80.683594 123.789062 82.792969 C 130.660156 84.917969 136.597656 89.296875 141.980469 94.054688 C 161.179688 110.996094 174.953125 133.113281 191.894531 152.296875 C 195.476562 156.359375 199.328125 160.367188 204.222656 162.6875 C 208.480469 164.699219 228.007812 174.574219 253.042969 174.574219 C 274.4375 174.574219 295.878906 163.523438 313.679688 151.660156 C 335.867188 136.878906 351.261719 114.097656 370.570312 95.699219 C 375.550781 90.953125 380.949219 86.402344 387.363281 83.933594 C 393.777344 81.46875 401.457031 81.359375 407.199219 85.148438 C 413.625 89.40625 416.300781 97.367188 418.558594 104.753906 C 420.214844 110.175781 421.871094 115.597656 423.511719 121.03125 C 426.628906 119.667969 426.566406 115.351562 427.792969 112.1875 C 430.164062 106.078125 438.539062 104.113281 444.5 106.8125 C 450.464844 109.511719 454.289062 115.484375 456.804688 121.53125 C 459.320312 127.582031 460.914062 134.042969 464.191406 139.722656 C 472.628906 154.394531 491.886719 163.691406 492.585938 180.609375 L 492.414062 328.777344 C 492.414062 328.777344 443.875 388.773438 382.335938 382.566406 C 320.804688 376.359375 285.597656 328.519531 278.007812 318.042969 C 270.402344 307.558594 231.601562 318.042969 231.601562 318.042969 C 231.601562 318.042969 202.285156 400.429688 123.542969 394.992188 C 44.804688 389.558594 12.53125 301.949219 10.667969 298.171875 C 8.800781 294.394531 15.597656 276.398438 15.597656 276.398438 Z M 21.203125 173.605469 "/>
<path style=" stroke:none;fill-rule:nonzero;fill:rgb(0.392157%,0.392157%,0.392157%);fill-opacity:1;" d="M 492.585938 186.777344 C 489.3125 186.777344 486.601562 184.203125 486.453125 180.902344 C 486.121094 172.832031 479.867188 166.5625 472.617188 159.277344 C 467.648438 154.285156 462.496094 149.121094 458.867188 142.816406 C 456.472656 138.65625 454.941406 134.328125 453.46875 130.121094 C 452.71875 128.035156 451.996094 125.949219 451.148438 123.914062 C 448.660156 117.914062 445.570312 114.050781 441.976562 112.417969 C 440.171875 111.585938 437.753906 111.570312 435.855469 112.332031 C 435.03125 112.675781 433.953125 113.3125 433.523438 114.417969 C 433.265625 115.082031 433.105469 115.816406 432.921875 116.566406 C 432.1875 119.519531 430.984375 124.476562 426.003906 126.660156 C 424.371094 127.359375 422.542969 127.347656 420.988281 126.625 C 419.390625 125.886719 418.175781 124.527344 417.675781 122.84375 L 412.695312 106.554688 C 410.609375 99.699219 408.363281 93.292969 403.824219 90.289062 C 400.207031 87.910156 394.761719 87.6875 389.585938 89.6875 C 384.027344 91.824219 379.195312 95.980469 374.816406 100.164062 C 368.042969 106.617188 361.578125 113.828125 355.324219 120.808594 C 343.828125 133.628906 331.941406 146.898438 317.089844 156.789062 C 292.898438 172.894531 271.945312 180.730469 253.042969 180.730469 C 236.203125 180.730469 219.089844 176.632812 202.1875 168.539062 C 195.574219 165.410156 191.058594 160.625 187.292969 156.382812 C 180.953125 149.21875 175.015625 141.589844 169.273438 134.230469 C 159.191406 121.261719 149.648438 109.019531 137.898438 98.667969 C 133.789062 95.023438 128.253906 90.609375 121.960938 88.671875 C 116.378906 86.953125 110.566406 87.589844 106.863281 90.375 C 101.464844 94.421875 100.175781 101.980469 98.703125 110.738281 C 97.785156 116.210938 96.839844 121.875 94.71875 127.199219 C 93.980469 129.015625 92.4375 130.378906 90.546875 130.867188 C 88.683594 131.347656 86.644531 130.917969 85.125 129.664062 L 67.988281 115.582031 C 66.285156 114.183594 65.644531 113.925781 65.4375 113.878906 C 59.929688 121.03125 58.066406 130.121094 56.089844 139.738281 C 55.625 141.980469 55.171875 144.214844 54.667969 146.421875 C 51.441406 160.480469 37.199219 175.308594 22.933594 179.480469 C 19.621094 180.414062 16.273438 178.546875 15.328125 175.308594 C 14.371094 172.058594 16.234375 168.660156 19.488281 167.703125 C 29.433594 164.808594 40.5 153.351562 42.71875 143.675781 C 43.199219 141.5625 43.640625 139.417969 44.082031 137.269531 C 46.277344 126.539062 48.546875 115.449219 56.164062 106.566406 C 57.464844 105.035156 59.574219 102.886719 62.714844 102.015625 C 68.761719 100.335938 73.679688 104.371094 75.777344 106.101562 L 85.640625 114.210938 C 85.984375 112.417969 86.304688 110.578125 86.609375 108.691406 C 88.289062 98.765625 90.179688 87.53125 99.515625 80.539062 C 106.394531 75.386719 116.136719 74.023438 125.59375 76.929688 C 134.117188 79.554688 141 85.015625 146.03125 89.457031 C 158.628906 100.570312 168.96875 113.828125 178.964844 126.671875 C 184.597656 133.886719 190.410156 141.355469 196.496094 148.238281 C 199.574219 151.734375 202.921875 155.289062 206.859375 157.15625 C 222.734375 164.761719 238.066406 168.453125 253.054688 168.453125 C 269.46875 168.453125 288.1875 161.300781 310.292969 146.570312 C 323.847656 137.539062 334.703125 125.421875 346.210938 112.601562 C 352.613281 105.449219 359.25 98.054688 366.375 91.269531 C 371.429688 86.460938 377.613281 81.136719 385.191406 78.230469 C 394.136719 74.796875 403.667969 75.460938 410.609375 80.058594 C 419.207031 85.75 422.359375 96.128906 424.445312 102.996094 L 425.121094 105.179688 C 426.765625 103.402344 428.835938 101.96875 431.253906 100.984375 C 436.269531 98.9375 442.207031 99.046875 447.078125 101.257812 C 453.578125 104.210938 458.769531 110.246094 462.507812 119.203125 C 463.441406 121.445312 464.25 123.742188 465.0625 126.035156 C 466.421875 129.875 467.710938 133.503906 469.539062 136.695312 C 472.359375 141.613281 476.726562 145.992188 481.351562 150.628906 C 489.644531 158.957031 498.21875 167.558594 498.757812 180.386719 C 498.890625 183.773438 496.265625 186.632812 492.882812 186.777344 C 492.757812 186.777344 492.671875 186.777344 492.585938 186.777344 Z M 492.585938 186.777344 "/>
<path style=" stroke:none;fill-rule:nonzero;fill:rgb(99.607843%,74.901962%,6.27451%);fill-opacity:1;" d="M 203.914062 331.671875 C 205.386719 319.773438 211.089844 308.328125 220.167969 300.171875 C 229.246094 292.015625 241.695312 287.304688 254.085938 287.84375 C 262.378906 288.199219 270.402344 290.8125 277.957031 294.125 C 293.328125 300.882812 308.550781 312.917969 309.617188 329.183594 C 309.703125 330.386719 309.65625 331.722656 308.84375 332.640625 C 308.085938 333.511719 306.832031 333.808594 305.679688 334.054688 C 289.992188 337.378906 274.632812 342.171875 259.902344 348.367188 C 244.777344 342.441406 219.886719 334.996094 203.914062 331.671875 Z M 203.914062 331.671875 "/>
<path style=" stroke:none;fill-rule:nonzero;fill:rgb(0.392157%,0.392157%,0.392157%);fill-opacity:1;" d="M 128.820312 401.382812 C 107.632812 401.382812 86.597656 394.933594 68.589844 382.566406 C 43.269531 365.171875 20.015625 334.238281 7.808594 313.039062 C 6.117188 310.109375 7.132812 306.355469 10.078125 304.660156 C 12.972656 302.96875 16.738281 303.960938 18.457031 306.917969 C 33.679688 333.378906 56.089844 359.101562 75.546875 372.460938 C 97.527344 387.546875 125.789062 392.75 151.15625 386.34375 C 176.609375 379.929688 199.855469 361.691406 213.335938 337.546875 C 215.003906 334.59375 218.734375 333.539062 221.691406 335.195312 C 224.644531 336.847656 225.703125 340.578125 224.046875 343.546875 C 208.710938 370.976562 183.246094 390.910156 154.148438 398.246094 C 145.808594 400.34375 137.296875 401.382812 128.820312 401.382812 Z M 128.820312 401.382812 "/>
<path style=" stroke:none;fill-rule:nonzero;fill:rgb(0.392157%,0.392157%,0.392157%);fill-opacity:1;" d="M 388.699219 388.910156 C 354.328125 388.910156 322.902344 376.226562 302.578125 353.65625 C 298.320312 348.945312 296.085938 346.011719 292.246094 340.972656 C 290.199219 338.273438 290.726562 334.433594 293.425781 332.382812 C 296.136719 330.335938 299.976562 330.851562 302.023438 333.5625 C 305.617188 338.285156 307.714844 341.03125 311.691406 345.460938 C 332.335938 368.398438 366.214844 379.734375 402.539062 375.90625 C 435.914062 372.324219 470.742188 349.742188 487.203125 320.976562 C 488.871094 318.019531 492.636719 317.015625 495.566406 318.695312 C 498.511719 320.375 499.53125 324.128906 497.847656 327.074219 C 479.253906 359.542969 441.484375 384.0625 403.851562 388.101562 C 398.757812 388.640625 393.707031 388.910156 388.699219 388.910156 Z M 388.699219 388.910156 "/>
<path style=" stroke:none;fill-rule:nonzero;fill:rgb(0.392157%,0.392157%,0.392157%);fill-opacity:1;" d="M 259.914062 354.5 C 259.152344 354.5 258.390625 354.367188 257.667969 354.070312 C 242.851562 348.269531 218.167969 340.910156 202.664062 337.671875 C 199.546875 337.019531 197.4375 334.089844 197.832031 330.925781 C 199.5 317.40625 206.148438 304.539062 216.070312 295.609375 C 226.558594 286.175781 240.542969 281.148438 254.34375 281.722656 C 262.402344 282.078125 270.683594 284.238281 280.410156 288.53125 C 301.792969 297.925781 314.660156 312.597656 315.738281 328.789062 C 315.824219 330.1875 316.03125 333.78125 313.433594 336.714844 C 311.359375 339.117188 308.488281 339.730469 306.957031 340.050781 C 291.660156 343.289062 276.632812 347.988281 262.269531 354.023438 C 261.53125 354.34375 260.734375 354.5 259.914062 354.5 Z M 211.03125 326.976562 C 226.191406 330.558594 246.027344 336.542969 259.839844 341.769531 C 273.871094 336.027344 288.480469 331.5 303.335938 328.300781 C 300.992188 312.144531 281.574219 302.429688 275.492188 299.753906 C 267.1875 296.101562 260.316406 294.273438 253.816406 293.976562 C 243.316406 293.523438 232.277344 297.546875 224.277344 304.734375 C 217.863281 310.5 213.203125 318.402344 211.03125 326.976562 Z M 211.03125 326.976562 "/>
<path style=" stroke:none;fill-rule:nonzero;fill:rgb(0.392157%,0.392157%,0.392157%);fill-opacity:1;" d="M 257.960938 394.40625 C 250.824219 394.40625 243.746094 392.527344 236.949219 390.503906 C 234.261719 389.695312 229.785156 388.355469 226.929688 384.457031 C 225.589844 382.628906 224.964844 380.738281 224.460938 379.21875 C 224.265625 378.667969 224.105469 378.101562 223.847656 377.574219 C 223.40625 376.644531 222.402344 375.574219 221.347656 374.460938 C 220.367188 373.417969 219.382812 372.363281 218.539062 371.222656 C 211.777344 362.265625 213.1875 350.785156 215.042969 340.738281 C 215.65625 337.402344 218.820312 335.15625 222.191406 335.820312 C 225.515625 336.433594 227.726562 339.632812 227.113281 342.957031 C 225.664062 350.796875 224.574219 358.855469 228.351562 363.859375 C 228.941406 364.644531 229.625 365.355469 230.277344 366.070312 C 231.859375 367.75 233.636719 369.652344 234.914062 372.277344 C 235.378906 373.257812 235.746094 374.3125 236.101562 375.367188 C 236.335938 376.03125 236.632812 376.9375 236.839844 377.207031 C 237.269531 377.796875 239.625 378.496094 240.496094 378.765625 C 248.996094 381.304688 257.214844 383.414062 264.476562 381.265625 C 269.824219 379.683594 274.914062 375.527344 278.816406 369.539062 C 282.667969 363.628906 285.121094 356.523438 287.269531 349.765625 C 287.609375 348.6875 287.917969 347.386719 288.222656 346.023438 C 289.523438 340.394531 291.328125 332.691406 297.730469 329.699219 C 300.808594 328.300781 304.464844 329.601562 305.875 332.679688 C 307.300781 335.746094 305.972656 339.402344 302.90625 340.824219 C 301.828125 341.644531 300.710938 346.464844 300.171875 348.785156 C 299.765625 350.488281 299.386719 352.109375 298.945312 353.484375 C 296.527344 361.050781 293.769531 369.039062 289.070312 376.238281 C 283.574219 384.664062 276.054688 390.613281 267.921875 393.019531 C 264.609375 394 261.285156 394.40625 257.960938 394.40625 Z M 257.960938 394.40625 "/>
<path style=" stroke:none;fill-rule:nonzero;fill:rgb(83.92157%,89.803922%,89.803922%);fill-opacity:1;" d="M 314.277344 236.386719 C 317.652344 259.375 313.003906 282.816406 320.105469 304.957031 C 328.335938 330.605469 355.359375 348.464844 382.53125 347.964844 C 409.703125 347.460938 435.289062 329.699219 446.796875 305.324219 C 455.726562 286.421875 456.671875 264.894531 456.597656 244.027344 C 456.546875 230.167969 456.105469 216.28125 454.132812 202.554688 C 453.332031 196.984375 452.253906 191.378906 449.738281 186.335938 C 444.488281 175.824219 433.449219 169.054688 421.96875 166.132812 C 410.488281 163.214844 398.453125 163.632812 386.617188 164.121094 C 376.898438 164.527344 367.050781 165.007812 357.765625 167.863281 C 329.414062 176.609375 310.011719 207.300781 314.277344 236.386719 Z M 314.277344 236.386719 "/>
<path style=" stroke:none;fill-rule:nonzero;fill:rgb(83.92157%,89.803922%,89.803922%);fill-opacity:1;" d="M 57.488281 267.566406 C 57.304688 256.773438 56.617188 237.332031 57.796875 226.597656 C 58.582031 219.421875 60.078125 212.28125 62.738281 205.546875 C 71.949219 182.15625 95.859375 165.203125 121.238281 163.863281 C 146.617188 162.527344 172.132812 176.820312 184.167969 198.921875 C 193.144531 215.445312 194.714844 234.777344 196.113281 253.472656 C 197.195312 267.996094 198.222656 282.914062 193.894531 296.835938 C 189.246094 311.753906 178.535156 324.484375 165.3125 333.035156 C 152.089844 341.585938 136.472656 346.148438 120.734375 347.65625 C 117.03125 348.011719 113.253906 348.195312 109.597656 347.472656 C 98.875 345.339844 91.394531 336.003906 84.976562 327.246094 C 70.625 307.65625 57.917969 291.746094 57.488281 267.566406 Z M 57.488281 267.566406 "/>
<path style=" stroke:none;fill-rule:nonzero;fill:rgb(0.392157%,0.392157%,0.392157%);fill-opacity:1;" d="M 381.367188 354.121094 C 351.1875 354.121094 323.109375 334.410156 314.265625 306.832031 C 309.765625 292.789062 309.691406 278.410156 309.617188 264.511719 C 309.570312 255.507812 309.519531 246.1875 308.207031 237.28125 C 303.519531 205.328125 324.9375 171.570312 355.960938 162.023438 C 366.277344 158.859375 376.949219 158.417969 386.371094 158.015625 C 397.816406 157.535156 410.828125 156.984375 423.476562 160.210938 C 438.074219 163.914062 449.652344 172.453125 455.222656 183.613281 C 458.15625 189.476562 459.34375 195.769531 460.203125 201.695312 C 462.351562 216.660156 462.667969 231.492188 462.71875 244.015625 C 462.804688 264.15625 462.066406 287.367188 452.328125 307.960938 C 439.558594 335.023438 411.554688 353.570312 382.617188 354.109375 C 382.210938 354.109375 381.78125 354.121094 381.367188 354.121094 Z M 320.351562 235.488281 C 321.773438 245.242188 321.835938 255.007812 321.882812 264.441406 C 321.957031 278.007812 322.019531 290.824219 325.957031 303.078125 C 333.082031 325.332031 356.796875 341.84375 381.402344 341.84375 C 381.734375 341.84375 382.078125 341.84375 382.421875 341.828125 C 406.769531 341.375 430.417969 325.664062 441.25 302.710938 C 449.898438 284.421875 450.535156 262.84375 450.464844 244.050781 C 450.425781 231.933594 450.109375 217.640625 448.070312 203.425781 C 447.359375 198.53125 446.414062 193.402344 444.257812 189.085938 C 440.28125 181.113281 431.609375 174.917969 420.472656 172.082031 C 409.503906 169.285156 397.472656 169.8125 386.898438 170.269531 C 378.210938 170.636719 368.375 171.042969 359.566406 173.753906 C 334.089844 181.578125 316.511719 209.277344 320.351562 235.488281 Z M 320.351562 235.488281 "/>
<path style=" stroke:none;fill-rule:nonzero;fill:rgb(21.568628%,21.960784%,21.568628%);fill-opacity:1;" d="M 360.976562 212.441406 C 366.082031 212 370.507812 216.769531 371.332031 222.191406 C 372.632812 230.792969 366.019531 239.796875 357.9375 240.433594 C 356.035156 240.582031 354.058594 240.347656 352.269531 241.035156 C 348.292969 242.566406 346.921875 247.792969 346.453125 252.296875 C 345.449219 262.144531 346.109375 272.191406 348.429688 281.785156 C 349.558594 286.484375 351.101562 291.105469 353.558594 295.179688 C 359.164062 304.464844 369.652344 310.097656 379.941406 309.335938 C 390.234375 308.574219 399.898438 301.460938 404.265625 291.425781 C 407.234375 284.59375 407.8125 276.878906 408.03125 269.347656 C 408.425781 255.632812 407.664062 241.476562 402.21875 229.0625 C 396.773438 216.660156 385.71875 206.308594 372.960938 205.707031 C 367.996094 205.484375 362.117188 207.253906 360.976562 212.441406 Z M 360.976562 212.441406 "/>
<path style=" stroke:none;fill-rule:nonzero;fill:rgb(21.568628%,21.960784%,21.568628%);fill-opacity:1;" d="M 119.753906 213.078125 C 127.003906 216.292969 128.609375 227.457031 126.660156 235.207031 C 124.722656 242.949219 117.71875 248.898438 109.929688 250.40625 C 108.664062 250.652344 107.304688 250.824219 106.285156 251.621094 C 104.863281 252.726562 104.496094 254.699219 104.273438 256.503906 C 103.058594 266.28125 103.109375 276.398438 106.148438 285.769531 C 109.191406 295.144531 115.496094 303.71875 124.34375 307.914062 C 133.1875 312.109375 144.605469 311.210938 151.757812 304.488281 C 154.875 301.570312 157.042969 297.753906 158.640625 293.78125 C 162.636719 283.773438 163.066406 272.71875 163.191406 261.925781 C 163.277344 254.429688 163.214844 246.800781 161.117188 239.613281 C 156.199219 222.832031 137.074219 212.574219 119.753906 213.078125 Z M 119.753906 213.078125 "/>
<path style=" stroke:none;fill-rule:nonzero;fill:rgb(0.392157%,0.392157%,0.392157%);fill-opacity:1;" d="M 378.042969 315.554688 C 366.191406 315.554688 354.722656 308.980469 348.308594 298.355469 C 345.804688 294.222656 343.953125 289.414062 342.457031 283.230469 C 339.976562 272.914062 339.253906 262.292969 340.34375 251.695312 C 341.242188 242.972656 344.503906 237.464844 350.035156 235.332031 C 352.332031 234.449219 354.425781 234.410156 356.121094 234.375 L 357.433594 234.324219 C 359.371094 234.164062 361.382812 232.964844 362.941406 231 C 364.78125 228.683594 365.652344 225.726562 365.246094 223.113281 C 364.84375 220.4375 363.332031 218.425781 361.480469 218.539062 C 359.566406 218.722656 357.640625 217.949219 356.339844 216.476562 C 355.066406 215.003906 354.550781 213.019531 354.96875 211.117188 C 356.574219 203.769531 364.179688 199.277344 373.21875 199.585938 C 387.300781 200.261719 400.882812 210.859375 407.800781 226.609375 C 414.066406 240.886719 414.472656 257.042969 414.128906 269.53125 C 413.882812 277.625 413.222656 286.164062 409.847656 293.878906 C 404.535156 306.058594 392.96875 314.523438 380.359375 315.457031 C 379.597656 315.53125 378.824219 315.554688 378.042969 315.554688 Z M 373.171875 211.875 C 375.332031 214.402344 376.851562 217.628906 377.402344 221.273438 C 378.3125 227.285156 376.570312 233.601562 372.570312 238.617188 C 368.914062 243.230469 363.75 246.125 358.414062 246.554688 L 356.367188 246.640625 C 355.726562 246.652344 354.746094 246.664062 354.464844 246.777344 C 354.257812 246.847656 353.054688 248.273438 352.5625 252.945312 C 351.632812 262.15625 352.246094 271.382812 354.402344 280.363281 C 355.582031 285.28125 356.980469 288.984375 358.808594 292.015625 C 363.210938 299.3125 371.550781 303.890625 379.488281 303.226562 C 387.488281 302.636719 395.191406 296.910156 398.660156 288.984375 C 401.3125 282.886719 401.726562 275.566406 401.910156 269.1875 C 402.21875 257.988281 401.910156 243.585938 396.613281 231.550781 C 392.515625 222.253906 383.71875 212.660156 373.171875 211.875 Z M 373.171875 211.875 "/>
<path style=" stroke:none;fill-rule:nonzero;fill:rgb(0.392157%,0.392157%,0.392157%);fill-opacity:1;" d="M 115.140625 354.121094 C 112.945312 354.121094 110.6875 353.960938 108.394531 353.507812 C 95.625 350.957031 87.0625 340.492188 80.023438 330.886719 L 77.65625 327.660156 C 63.78125 308.769531 51.796875 292.46875 51.355469 267.679688 L 51.246094 262.304688 C 50.988281 250.96875 50.65625 235.453125 51.6875 225.933594 C 52.59375 217.496094 54.347656 210.085938 57.023438 203.300781 C 67.179688 177.519531 92.867188 159.214844 120.90625 157.742188 C 148.59375 156.40625 176.304688 171.65625 189.550781 196.003906 C 199.316406 213.960938 200.859375 234.71875 202.222656 253.03125 C 203.277344 267.296875 204.480469 283.464844 199.746094 298.675781 C 194.863281 314.339844 183.8125 328.375 168.636719 338.199219 C 155.523438 346.6875 139.160156 352.074219 121.324219 353.777344 C 119.324219 353.960938 117.25 354.121094 115.140625 354.121094 Z M 124.453125 169.914062 C 123.484375 169.914062 122.515625 169.9375 121.558594 169.984375 C 98.582031 171.1875 76.746094 186.730469 68.429688 207.792969 C 66.171875 213.53125 64.675781 219.898438 63.890625 227.246094 C 62.945312 235.96875 63.277344 251.03125 63.523438 262.023438 L 63.632812 267.445312 C 63.988281 288.335938 74.390625 302.476562 87.554688 320.375 L 89.921875 323.613281 C 95.847656 331.722656 102.347656 339.769531 110.789062 341.449219 C 113.707031 342.027344 117.019531 341.828125 120.148438 341.546875 C 136.042969 340.027344 150.507812 335.304688 161.976562 327.871094 C 174.746094 319.613281 184.007812 307.9375 188.03125 294.996094 C 192.078125 282.019531 191.011719 267.726562 189.980469 253.914062 C 188.703125 236.839844 187.269531 217.484375 178.769531 201.832031 C 168.367188 182.742188 146.359375 169.914062 124.453125 169.914062 Z M 124.453125 169.914062 "/>
<path style=" stroke:none;fill-rule:nonzero;fill:rgb(0.392157%,0.392157%,0.392157%);fill-opacity:1;" d="M 135.664062 316.574219 C 130.941406 316.574219 126.144531 315.554688 121.71875 313.457031 C 111.902344 308.808594 104.101562 299.398438 100.3125 287.660156 C 97.355469 278.546875 96.644531 268.105469 98.175781 255.753906 C 98.421875 253.890625 98.949219 249.574219 102.496094 246.800781 C 104.582031 245.167969 106.847656 244.75 108.359375 244.46875 C 114.492188 243.28125 119.410156 238.886719 120.722656 233.722656 C 122.121094 228.117188 120.917969 220.328125 117.265625 218.695312 C 114.652344 217.53125 113.179688 214.710938 113.742188 211.902344 C 114.296875 209.09375 116.710938 207.042969 119.582031 206.957031 C 137.664062 206.441406 160.910156 217.066406 166.992188 237.882812 C 169.300781 245.734375 169.410156 253.765625 169.3125 261.984375 C 169.1875 273.234375 168.699219 285.132812 164.332031 296.050781 C 162.160156 301.472656 159.425781 305.691406 155.964844 308.941406 C 150.640625 313.949219 143.257812 316.574219 135.664062 316.574219 Z M 110.457031 256.550781 C 110.429688 256.75 110.394531 256.980469 110.359375 257.261719 C 109.058594 267.777344 109.585938 276.472656 111.988281 283.859375 C 114.761719 292.40625 120.21875 299.140625 126.980469 302.355469 C 133.933594 305.644531 142.59375 304.660156 147.5625 300 C 149.671875 298.027344 151.476562 295.15625 152.949219 291.488281 C 156.53125 282.519531 156.921875 272.351562 157.042969 261.839844 C 157.128906 254.308594 157.042969 247.5625 155.230469 241.316406 C 152.261719 231.160156 142.863281 224.105469 132.660156 220.992188 C 133.945312 226.082031 133.875 231.722656 132.621094 236.691406 C 130.15625 246.480469 121.507812 254.40625 111.09375 256.417969 C 111.09375 256.429688 110.789062 256.492188 110.457031 256.550781 Z M 110.457031 256.550781 "/>
<path style=" stroke:none;fill-rule:nonzero;fill:rgb(0.392157%,0.392157%,0.392157%);fill-opacity:1;" d="M 398.550781 507.464844 C 398.21875 507.464844 397.875 507.464844 397.558594 507.464844 C 343.472656 506.988281 291.4375 505.210938 241.121094 503.480469 C 190.816406 501.761719 138.816406 499.972656 84.84375 499.503906 C 76.011719 499.433594 66.027344 499.332031 56.628906 495.886719 C 40.046875 489.789062 27.335938 474.421875 18.859375 450.21875 C 3.894531 407.628906 5.550781 360.609375 7 319.113281 C 7.097656 316.390625 6.789062 312.402344 6.507812 308.242188 C 6.054688 301.878906 5.589844 295.300781 6.152344 290.8125 C 13.832031 229.980469 15.082031 178.644531 10.296875 119.175781 C 7.625 86.09375 13.609375 61.007812 28.109375 44.65625 C 40.328125 30.859375 58.542969 25.238281 74.761719 21.558594 C 138.71875 7.046875 205.15625 10.742188 269.433594 14.320312 C 306.269531 16.371094 344.367188 18.480469 381.535156 17.132812 L 385.316406 16.984375 C 408.144531 16.078125 434.015625 15.09375 454.425781 28.710938 C 477.832031 44.3125 486 73.214844 490.5 96.644531 C 501.714844 154.996094 500.621094 214.929688 499.566406 272.890625 L 497.015625 413.441406 C 496.550781 439.300781 494.378906 468.371094 474.542969 486.023438 C 456.769531 501.835938 419.796875 507.464844 398.550781 507.464844 Z M 18.320312 292.359375 C 17.902344 295.65625 18.34375 301.878906 18.738281 307.386719 C 19.070312 312.046875 19.375 316.511719 19.265625 319.566406 C 17.84375 359.972656 16.234375 405.777344 30.429688 446.183594 C 35.382812 460.339844 44.695312 478.445312 60.863281 484.394531 C 68.246094 487.105469 76.734375 487.191406 84.941406 487.25 C 139.074219 487.71875 191.160156 489.507812 241.539062 491.238281 C 291.78125 492.957031 343.730469 494.746094 397.65625 495.210938 C 421.058594 495.726562 452.695312 489.054688 466.398438 476.859375 C 482.527344 462.496094 484.308594 437.546875 484.75 413.222656 L 487.300781 272.671875 C 488.34375 215.347656 489.421875 156.0625 478.445312 98.960938 C 474.394531 77.886719 467.230469 52.019531 447.605469 38.929688 C 430.492188 27.519531 407.761719 28.429688 385.769531 29.25 L 381.980469 29.398438 C 344.234375 30.785156 305.863281 28.648438 268.746094 26.578125 C 205.339844 23.03125 139.773438 19.386719 77.457031 33.519531 C 63.15625 36.757812 47.210938 41.589844 37.285156 52.789062 C 25.105469 66.566406 20.136719 88.574219 22.515625 118.207031 C 27.363281 178.5625 26.109375 230.644531 18.320312 292.359375 Z M 18.320312 292.359375 "/>
</g>
</svg>
